<?xml version="1.0" encoding="utf-8"?><!-- Uploaded to: SVG Repo, www.svgrepo.com, Generator: SVG Repo Mixer Tools -->
<svg width="100%" height="100%" viewBox="0 0 48 48" fill="none" xmlns="http://www.w3.org/2000/svg" fit="" preserveAspectRatio="xMidYMid meet" focusable="false">
<path d="M24 48C37.2548 48 48 37.2548 48 24C48 10.7452 37.2548 0 24 0C10.7452 0 0 10.7452 0 24C0 37.2548 10.7452 48 24 48Z" fill="black"></path>
<path fill-rule="evenodd" clip-rule="evenodd" d="M21.3366 20.4037V19.175C20.9101 19.1146 20.4801 19.0833 20.0494 19.0812C14.7827 19.0812 10.4978 23.3668 10.4978 28.6336C10.4978 31.8643 12.1125 34.7243 14.5756 36.4537C12.9263 34.6899 12.0094 32.365 12.0107 29.9503C12.0107 24.7585 16.1737 20.5249 21.3366 20.4037Z" fill="#00F2EA"></path>
<path fill-rule="evenodd" clip-rule="evenodd" d="M21.5617 34.3123C23.9115 34.3123 25.8285 32.443 25.9158 30.1133L25.9237 9.3167H29.723C29.6419 8.88248 29.6009 8.44173 29.6004 8H24.4115L24.4028 28.7973C24.3163 31.1263 22.3986 32.9949 20.0494 32.9949C19.3442 32.9952 18.6495 32.8233 18.0257 32.4942C18.4285 33.0561 18.9593 33.5141 19.5741 33.8303C20.189 34.1464 20.8703 34.3116 21.5617 34.3123ZM36.8202 16.3756V15.2198C35.4239 15.2211 34.0576 14.8149 32.8889 14.051C33.9136 15.2309 35.2926 16.0465 36.8202 16.3756Z" fill="#00F2EA"></path>
<path fill-rule="evenodd" clip-rule="evenodd" d="M32.8889 14.051C31.7435 12.7404 31.1124 11.058 31.1132 9.31745L29.723 9.3167C29.903 10.2788 30.2763 11.195 30.8205 12.0085C31.3646 12.8221 32.0684 13.5174 32.8889 14.051ZM20.0493 24.2708C18.8928 24.2721 17.7841 24.7321 16.9663 25.5499C16.1486 26.3677 15.6886 27.4764 15.6873 28.6329C15.688 29.4284 15.9062 30.2086 16.3182 30.8892C16.7302 31.5697 17.3212 32.1247 18.0257 32.4942C17.4893 31.7544 17.1995 30.8641 17.1995 29.9503C17.2006 28.7937 17.6605 27.6848 18.4783 26.8669C19.2961 26.0489 20.4049 25.5888 21.5615 25.5875C22.011 25.5875 22.4417 25.6618 22.8486 25.7895V20.4917C22.4222 20.4313 21.9922 20.4 21.5615 20.3979C21.4858 20.3979 21.4116 20.4022 21.3366 20.4037L21.3364 24.4728C20.9202 24.3403 20.4861 24.2722 20.0493 24.2708Z" fill="#FF004F"></path>
<path fill-rule="evenodd" clip-rule="evenodd" d="M36.8202 16.3756L36.8203 20.4086C34.1291 20.4086 31.6364 19.5479 29.6004 18.0869V28.6328C29.6004 33.8996 25.3163 38.1844 20.0495 38.1844C18.0142 38.1844 16.1268 37.5431 14.5756 36.4537C15.4674 37.4154 16.5483 38.1818 17.7505 38.7063C18.9526 39.2309 20.2501 39.5014 21.5617 39.5011C26.8285 39.5011 31.1134 35.2163 31.1134 29.9502V19.4043C33.2167 20.9168 35.7426 21.7291 38.3332 21.7261V16.5358C37.8137 16.5358 37.3086 16.4803 36.8202 16.3756Z" fill="#FF004F"></path>
<path fill-rule="evenodd" clip-rule="evenodd" d="M29.6004 28.6328V18.0869C31.7036 19.5995 34.2296 20.4118 36.8203 20.4086L36.8202 16.3756C35.2926 16.0465 33.9136 15.2309 32.8889 14.051C32.0684 13.5174 31.3646 12.8221 30.8205 12.0085C30.2763 11.195 29.903 10.2788 29.723 9.3167H25.9237L25.9158 30.1133C25.8285 32.443 23.9115 34.3123 21.5617 34.3123C20.8703 34.3116 20.189 34.1464 19.5741 33.8303C18.9593 33.5141 18.4285 33.0561 18.0257 32.4942C17.3212 32.1247 16.7302 31.5697 16.3182 30.8892C15.9062 30.2086 15.688 29.4284 15.6873 28.6329C15.6886 27.4764 16.1486 26.3677 16.9663 25.5499C17.7841 24.7321 18.8928 24.2721 20.0493 24.2708C20.4981 24.2708 20.9288 24.3444 21.3364 24.4728L21.3366 20.4037C16.1737 20.5249 12.0107 24.7585 12.0107 29.9503C12.0107 32.461 12.9862 34.7466 14.5756 36.4537C16.1779 37.5816 18.09 38.1861 20.0495 38.1844C25.3163 38.1844 29.6004 33.8996 29.6004 28.6328Z" fill="white"></path>
</svg>